<?xml version="1.0" encoding="UTF-8" standalone="no"?>
<svg
   xmlns:dc="http://purl.org/dc/elements/1.1/"
   xmlns:cc="http://creativecommons.org/ns#"
   xmlns:rdf="http://www.w3.org/1999/02/22-rdf-syntax-ns#"
   xmlns:svg="http://www.w3.org/2000/svg"
   xmlns="http://www.w3.org/2000/svg"
   xmlns:sodipodi="http://sodipodi.sourceforge.net/DTD/sodipodi-0.dtd"
   xmlns:inkscape="http://www.inkscape.org/namespaces/inkscape"
   width="24"
   height="24"
   fill-rule="evenodd"
   clip-rule="evenodd"
   version="1.1"
   id="svg4"
   sodipodi:docname="meowlo-paw.svg"
   inkscape:version="0.92.4 (unknown)">
  <metadata
     id="metadata10">
    <rdf:RDF>
      <cc:Work
         rdf:about="">
        <dc:format>image/svg+xml</dc:format>
        <dc:type
           rdf:resource="http://purl.org/dc/dcmitype/StillImage" />
        <dc:title></dc:title>
      </cc:Work>
    </rdf:RDF>
  </metadata>
  <defs
     id="defs8" />
  <sodipodi:namedview
     pagecolor="#ffffff"
     bordercolor="#666666"
     borderopacity="1"
     objecttolerance="10"
     gridtolerance="10"
     guidetolerance="10"
     inkscape:pageopacity="0"
     inkscape:pageshadow="2"
     inkscape:window-width="1920"
     inkscape:window-height="1019"
     id="namedview6"
     showgrid="false"
     inkscape:zoom="9.8333333"
     inkscape:cx="-0.55932203"
     inkscape:cy="12"
     inkscape:window-x="0"
     inkscape:window-y="0"
     inkscape:window-maximized="1"
     inkscape:current-layer="svg4" />
  <path
     d="M11.954 11c3.33 0 7.057 6.123 7.632 8.716.575 2.594-.996 4.729-3.484 4.112-1.092-.271-3.252-1.307-4.102-1.291-.925.016-2.379.836-3.587 1.252-2.657.916-4.717-1.283-4.01-4.073.774-3.051 4.48-8.716 7.551-8.716zm10.793-4.39c1.188.539 1.629 2.82.894 5.27-.704 2.341-2.33 3.806-4.556 2.796-1.931-.877-2.158-3.178-.894-5.27 1.274-2.107 3.367-3.336 4.556-2.796zm-21.968.706c-1.044.729-1.06 2.996.082 5.215 1.092 2.12 2.913 3.236 4.868 1.87 1.696-1.185 1.504-3.433-.082-5.215-1.596-1.793-3.824-2.599-4.868-1.87zm15.643-7.292c1.323.251 2.321 2.428 2.182 5.062-.134 2.517-1.405 4.382-3.882 3.912-2.149-.407-2.938-2.657-2.181-5.061.761-2.421 2.559-4.164 3.881-3.913zm-10.295.058c-1.268.451-1.92 2.756-1.377 5.337.519 2.467 2.062 4.114 4.437 3.269 2.06-.732 2.494-3.077 1.377-5.336-1.125-2.276-3.169-3.721-4.437-3.27z"
     id="path2"
     style="fill:#406ca5;fill-opacity:1" />
</svg>
