<svg 
xmlns="http://www.w3.org/2000/svg" 
xmlns:xlink="http://www.w3.org/1999/xlink" 
version="1.1" x="0px" y="0px" 
viewBox="0 0 500 500" 
style="enable-background:new 0 0 512 512;" 
xml:space="preserve"><g><g><g>
<path fill="#d35" d="M23.136,22C22.51,22,22,22.51,22,23.136v81.786h135.175V22H23.136z M125.369,76.524H54.942V46.99h70.427V76.524z"/>
<path fill="#da3" d="M186.709,22v82.922h138.583V22H186.709z M291.214,76.524h-70.427V46.99h70.427V76.524z"/>
<path fill="#08a" d="M488.864,22H354.825v82.922H490V23.136C490,22.51,489.49,22,488.864,22z M458.194,76.524h-70.427V46.99h70.427V76.524z"/></g><g>
<path fill="#5ce" d="M354.825,134.456V490h134.039c0.626,0,1.136-0.51,1.136-1.136V134.456H354.825z M457.058,328.699h-70.427v-29.534h70.427     V328.699z M457.058,226.466h-70.427v-29.534h70.427V226.466z"/>
<path fill="#ee3" d="M186.709,134.456V490h138.583V134.456H186.709z M290.078,427.524H219.65V397.99h70.427V427.524z M290.078,327.563H219.65     v-29.534h70.427V327.563z M290.078,226.466H219.65v-29.534h70.427V226.466z"/>
<path fill="#f88" d="M22,134.456v354.408c0,0.626,0.51,1.136,1.136,1.136h134.039V134.456H22z M124.233,328.699H53.806v-29.534h70.427     V328.699z M124.233,226.466H53.806v-29.534h70.427V226.466z"/>
</g></g></g>
<text x="0" y="527" fill="#000000" font-size="5px" font-weight="bold" font-family="'Helvetica Neue', Helvetica, Arial-Unicode, Arial, Sans-serif">Created by Shocho</text><text x="0" y="532" fill="#000000" font-size="5px" font-weight="bold" font-family="'Helvetica Neue', Helvetica, Arial-Unicode, Arial, Sans-serif">from the Noun Project</text></svg>
