<?xml version="1.0"?>
<svg fill="#acf" xmlns="http://www.w3.org/2000/svg" viewBox="0 0 30 30">
    <path style="text-indent:0;text-align:start;line-height:normal;text-transform:none;block-progression:tb;-inkscape-font-specification:Sans" d="M 16.03125 3 C 14.813048 2.9982632 13.577032 3.1612701 12.375 3.5 L 11.59375 3.71875 L 11.65625 4.5 C 11.704905 5.3320081 11.293465 6.1744077 10.5 6.625 C 9.7046387 7.0762688 8.7818373 6.9957485 8.0625 6.53125 L 7.40625 6.09375 L 6.8125 6.65625 C 5.0120213 8.3690852 3.7786165 10.522669 3.1875 12.84375 L 3 13.625 L 3.71875 13.96875 C 4.4897345 14.349998 5 15.109829 5 16 C 5 16.890171 4.4886387 17.65125 3.71875 18.03125 L 3 18.375 L 3.1875 19.15625 C 3.4787981 20.297707 3.931181 21.454422 4.5625 22.53125 C 5.1949237 23.608109 5.9552251 24.526323 6.8125 25.34375 L 7.40625 25.90625 L 8.0625 25.46875 C 8.7532042 25.020707 9.6318536 24.947776 10.40625 25.34375 L 10.5 25.375 C 11.294624 25.826555 11.705645 26.665854 11.65625 27.5 L 11.59375 28.28125 L 12.375 28.5 C 13.554408 28.831233 14.773668 29.008636 16 29 C 17.228131 29.0011 18.45107 28.829695 19.625 28.5 L 20.40625 28.28125 L 20.34375 27.46875 C 20.293691 26.635133 20.7048 25.826482 21.5 25.375 C 22.294228 24.92367 23.218743 24.971965 23.9375 25.4375 L 24.59375 25.875 L 25.1875 25.34375 C 26.044775 24.526323 26.805874 23.577352 27.4375 22.5 C 27.987049 21.564256 28.336561 20.581267 28.625 19.59375 L 28.6875 19.59375 L 28.6875 19.5625 C 28.6895 19.5556 28.712 19.48609 28.71875 19.46875 C 28.74104 19.41148 28.7666 19.336876 28.8125 19.15625 L 29 18.375 L 28.28125 18.03125 C 27.510706 17.65022 27 16.888864 27 16 C 27 15.109829 27.511361 14.34875 28.28125 13.96875 L 29 13.625 L 28.8125 12.84375 C 28.521202 11.702293 28.068819 10.576828 27.4375 9.5 C 26.80533 8.4235724 26.045078 7.4739654 25.1875 6.65625 L 24.59375 6.09375 L 23.9375 6.53125 C 23.218985 6.9973326 22.296179 7.077038 21.5 6.625 C 20.703829 6.1722615 20.293689 5.3336498 20.34375 4.5 L 20.40625 3.71875 L 19.625 3.5 C 18.459898 3.1723657 17.249452 3.0017368 16.03125 3 z M 16.03125 5 C 16.88772 5.00125 17.733936 5.1524456 18.5625 5.34375 C 18.77085 6.556988 19.343435 7.6860755 20.5 8.34375 C 21.663239 9.0041894 22.959291 8.9344301 24.125 8.5 C 24.712213 9.1105133 25.275706 9.7456066 25.71875 10.5 C 26.155118 11.244304 26.413748 12.049912 26.65625 12.84375 C 25.709462 13.624097 25 14.683277 25 16 C 25 17.316178 25.709782 18.375617 26.65625 19.15625 C 26.413892 19.950278 26.155497 20.756329 25.71875 21.5 C 25.273374 22.259668 24.718266 22.885547 24.125 23.5 C 22.95855 23.064408 21.664431 22.963298 20.5 23.625 C 19.352347 24.27659 18.777703 25.42324 18.5625 26.625 C 17.725268 26.8183 16.865209 27.000762 16 27 C 15.133574 27.0061 14.270824 26.84628 13.4375 26.65625 C 13.228657 25.443384 12.656206 24.313278 11.5 23.65625 C 10.337109 22.995423 9.040955 23.065469 7.875 23.5 C 7.2873979 22.889297 6.7240834 22.254034 6.28125 21.5 C 5.8437142 20.753704 5.5551704 19.983562 5.3125 19.1875 C 6.2788201 18.407392 7 17.332613 7 16 C 7 14.674802 6.269263 13.624097 5.3125 12.84375 C 5.804705 11.231303 6.6987985 9.7605121 7.90625 8.5 C 9.0641623 8.9209238 10.347087 8.9978851 11.5 8.34375 C 12.655541 7.6875422 13.228094 6.5552164 13.4375 5.34375 C 14.300346 5.1420039 15.162717 4.9987312 16.03125 5 z M 10.21875 12 L 10 12.6875 L 8.0625 18.6875 L 8 18.84375 L 8 19 L 8 20 L 10 20 L 10 19.125 L 10.03125 19 L 11.96875 19 L 12 19.125 L 12 20 L 14 20 L 14 19 L 14 18.84375 L 13.9375 18.6875 L 12 12.6875 L 11.78125 12 L 11.0625 12 L 10.9375 12 L 10.21875 12 z M 15 12 L 15 13 L 15 20 L 17 20 L 17 18 C 18.64497 18 20 16.64497 20 15 C 20 13.35503 18.64497 12 17 12 L 16 12 L 15 12 z M 21 12 L 21 20 L 23 20 L 23 12 L 21 12 z M 17 14 C 17.56503 14 18 14.43497 18 15 C 18 15.56503 17.56503 16 17 16 L 17 14 z M 11 16.0625 L 11.3125 17 L 10.6875 17 L 11 16.0625 z" overflow="visible" font-family="Sans"/>
</svg>
